:FULLY-SPECIFIED
:FORCE-ALL-JOINTS-BE-3DOF
:DEGREES
194
root 8.1354 16.6407 -10.2503 6.99828 4.05247 -2.85663
lfemur -38.9768 6.01882 -19.7587
ltibia 44.9402 0 0
lfoot -15.0827 9.91867 0
ltoes -12.1756 0 0
rfemur -9.88798 5.37088 28.8618
rtibia 24.0771 0 0
rfoot -20.7529 1.67399 0
rtoes -9.63339 0 0
lowerback -4.21706 1.57704 0.952762
upperback -1.3435 2.02657 3.33675
thorax 0.895045 1.01977 2.99411
lowerneck -13.9653 -6.75514 -15.5615
upperneck 13.3121 -8.72052 16.1649
head 7.83789 -3.66258 7.00607
lclavicle 1.65447e-14 2.39867e-14 0
lhumerus -48.9204 -9.81336 95.6794
lradius 30.849 0 0
lwrist 14.0351 0 0
lhand -12.7269 -24.6707 0
lfingers 7.12502 0 0
lthumb 13.3564 4.88122 0
rclavicle 1.65447e-14 2.39867e-14 0
rhumerus -36.3292 8.47696 -78.1544
rradius 48.0488 0 0
rwrist -24.6175 0 0
rhand -34.1621 -28.1208 0
rfingers 7.12502 0 0
rthumb -7.33605 -57.9735 0
195
root 8.14159 16.6356 -10.1186 6.97317 3.92 -2.96395
lfemur -39.2746 5.69474 -19.6004
ltibia 43.057 0 0
lfoot -15.0202 9.65545 0
ltoes -12.378 0 0
rfemur -8.95307 5.38934 29.0271
rtibia 23.2986 0 0
rfoot -20.6086 1.87917 0
rtoes -8.94077 0 0
lowerback -4.33058 1.5495 0.97372
upperback -1.10981 1.97688 3.34264
thorax 1.20161 0.992441 2.9945
lowerneck -14.8285 -6.77341 -15.1686
upperneck 13.6175 -8.70314 15.8804
head 8.05712 -3.61789 6.83545
lclavicle 1.08503e-14 2.33241e-14 0
lhumerus -48.5744 -9.73718 95.5477
lradius 30.5117 0 0
lwrist 13.5114 0 0
lhand -12.71 -24.5311 0
lfingers 7.12502 0 0
lthumb 13.3727 5.01977 0
rclavicle 1.08503e-14 2.33241e-14 0
rhumerus -35.7739 8.6667 -78.3694
rradius 48.4199 0 0
rwrist -24.8192 0 0
rhand -34.0993 -28.5029 0
rfingers 7.12502 0 0
rthumb -7.27544 -58.3577 0
196
root 8.14779 16.6306 -9.98691 6.94806 3.78752 -3.07126
lfemur -39.5725 5.37066 -19.4421
ltibia 41.1739 0 0
lfoot -14.9577 9.39222 0
ltoes -12.5803 0 0
rfemur -8.01815 5.40779 29.1925
rtibia 22.5202 0 0
rfoot -20.4644 2.08436 0
rtoes -8.24816 0 0
lowerback -4.44411 1.52196 0.994677
upperback -0.876126 1.92719 3.34854
thorax 1.50817 0.965117 2.99489
lowerneck -15.6918 -6.79169 -14.7757
upperneck 13.923 -8.68577 15.596
head 8.27634 -3.57321 6.66484
lclavicle 5.15595e-15 2.26614e-14 0
lhumerus -48.2284 -9.66099 95.416
lradius 30.1745 0 0
lwrist 12.9876 0 0
lhand -12.6931 -24.3914 0
lfingers 7.12502 0 0
lthumb 13.389 5.15832 0
rclavicle 5.15595e-15 2.26614e-14 0
rhumerus -35.2186 8.85644 -78.5845
rradius 48.7909 0 0
rwrist -25.0209 0 0
rhand -34.0365 -28.8849 0
rfingers 7.12502 0 0
rthumb -7.21482 -58.7418 0
197
root 8.15398 16.6256 -9.85522 6.92295 3.65504 -3.17857
lfemur -39.8704 5.04659 -19.2838
ltibia 39.2907 0 0
lfoot -14.8952 9.12899 0
ltoes -12.7827 0 0
rfemur -7.08323 5.42624 29.3578
rtibia 21.7417 0 0
rfoot -20.3201 2.28955 0
rtoes -7.55554 0 0
lowerback -4.55763 1.49442 1.01564
upperback -0.642438 1.87751 3.35444
thorax 1.81473 0.937792 2.99528
lowerneck -16.555 -6.80997 -14.3829
upperneck 14.2285 -8.6684 15.3116
head 8.49557 -3.52852 6.49422
lclavicle -5.384e-16 2.19988e-14 0
lhumerus -47.8824 -9.5848 95.2844
lradius 29.8373 0 0
lwrist 12.4639 0 0
lhand -12.6762 -24.2518 0
lfingers 7.12502 0 0
lthumb 13.4053 5.29688 0
rclavicle -5.384e-16 2.19988e-14 0
rhumerus -34.6633 9.04618 -78.7995
rradius 49.1619 0 0
rwrist -25.2227 0 0
rhand -33.9737 -29.267 0
rfingers 7.12502 0 0
rthumb -7.1542 -59.126 0
198
root 8.16017 16.6205 -9.72353 6.89784 3.52257 -3.28589
lfemur -40.1682 4.72251 -19.1255
ltibia 37.4075 0 0
lfoot -14.8327 8.86577 0
ltoes -12.9851 0 0
rfemur -6.14832 5.4447 29.5231
rtibia 20.9632 0 0
rfoot -20.1758 2.49473 0
rtoes -6.86292 0 0
lowerback -4.67115 1.46688 1.03659
upperback -0.40875 1.82783 3.36033
thorax 2.1213 0.910467 2.99567
lowerneck -17.4182 -6.82824 -13.99
upperneck 14.5339 -8.65102 15.0271
head 8.7148 -3.48384 6.3236
lclavicle -6.23275e-15 2.13362e-14 0
lhumerus -47.5364 -9.50862 95.1527
lradius 29.5 0 0
lwrist 11.9401 0 0
lhand -12.6593 -24.1122 0
lfingers 7.12502 0 0
lthumb 13.4216 5.43543 0
rclavicle -6.23275e-15 2.13362e-14 0
rhumerus -34.108 9.23592 -79.0146
rradius 49.533 0 0
rwrist -25.4244 0 0
rhand -33.9109 -29.6491 0
rfingers 7.12502 0 0
rthumb -7.09359 -59.5102 0
199
root 8.16636 16.6155 -9.59183 6.87273 3.39009 -3.3932
lfemur -40.4661 4.39844 -18.9672
ltibia 35.5243 0 0
lfoot -14.7702 8.60254 0
ltoes -13.1875 0 0
rfemur -5.2134 5.46315 29.6884
rtibia 20.1847 0 0
rfoot -20.0315 2.69992 0
rtoes -6.17031 0 0
lowerback -4.78468 1.43934 1.05755
upperback -0.175062 1.77814 3.36623
thorax 2.42786 0.883143 2.99606
lowerneck -18.2814 -6.84652 -13.5971
upperneck 14.8394 -8.63365 14.7427
head 8.93402 -3.43915 6.15299
lclavicle -1.19271e-14 2.06736e-14 0
lhumerus -47.1904 -9.43243 95.021
lradius 29.1628 0 0
lwrist 11.4164 0 0
lhand -12.6424 -23.9726 0
lfingers 7.12502 0 0
lthumb 13.4379 5.57398 0
rclavicle -1.19271e-14 2.06736e-14 0
rhumerus -33.5527 9.42566 -79.2296
rradius 49.904 0 0
rwrist -25.6261 0 0
rhand -33.8481 -30.0312 0
rfingers 7.12502 0 0
rthumb -7.03297 -59.8943 0
200
root 8.17792 16.6067 -9.45138 6.91871 3.16915 -3.55175
lfemur -40.7061 3.93766 -18.511
ltibia 33.8927 0 0
lfoot -14.7706 8.91755 0
ltoes -13.5406 0 0
rfemur -4.14499 5.3947 29.8325
rtibia 19.0177 0 0
rfoot -19.7724 2.96878 0
rtoes -6.40994 0 0
lowerback -4.92146 1.50169 1.22104
upperback -0.274398 1.84993 3.37959
thorax 2.40458 0.920732 2.92566
lowerneck -17.9499 -6.79713 -13.7212
upperneck 14.843 -8.58834 14.8075
head 8.87714 -3.43291 6.20834
lclavicle -1.23951e-14 1.57702e-14 0
lhumerus -47.6084 -9.53524 95.1894
lradius 28.9445 0 0
lwrist 11.1193 0 0
lhand -12.6577 -24.0269 0
lfingers 7.12502 0 0
lthumb 13.4232 5.5206 0
rclavicle -1.23951e-14 1.57702e-14 0
rhumerus -33.9182 9.70197 -79.5126
rradius 50.245 0 0
rwrist -25.8471 0 0
rhand -33.7852 -30.0541 0
rfingers 7.12502 0 0
rthumb -6.97225 -59.9192 0
201
root 8.18949 16.5979 -9.31093 6.9647 2.94822 -3.7103
lfemur -40.946 3.47687 -18.0549
ltibia 32.261 0 0
lfoot -14.771 9.23256 0
ltoes -13.8938 0 0
rfemur -3.07659 5.32625 29.9766
rtibia 17.8506 0 0
rfoot -19.5132 3.23764 0
rtoes -6.64958 0 0
lowerback -5.05824 1.56403 1.38454
upperback -0.373735 1.92172 3.39295
thorax 2.38129 0.958322 2.85525
lowerneck -17.6184 -6.74773 -13.8454
upperneck 14.8466 -8.54303 14.8724
head 8.82025 -3.42667 6.26369
lclavicle -1.2863e-14 1.08669e-14 0
lhumerus -48.0264 -9.63805 95.3577
lradius 28.7263 0 0
lwrist 10.8222 0 0
lhand -12.6729 -24.0813 0
lfingers 7.12502 0 0
lthumb 13.4085 5.46722 0
rclavicle -1.2863e-14 1.08669e-14 0
rhumerus -34.2837 9.97827 -79.7956
rradius 50.586 0 0
rwrist -26.0682 0 0
rhand -33.7223 -30.0771 0
rfingers 7.12502 0 0
rthumb -6.91153 -59.9441 0
202
root 8.20105 16.5891 -9.17048 7.01068 2.72729 -3.86885
lfemur -41.186 3.01608 -17.5987
ltibia 30.6293 0 0
lfoot -14.7714 9.54757 0
ltoes -14.2469 0 0
rfemur -2.00818 5.2578 30.1207
rtibia 16.6836 0 0
rfoot -19.2541 3.5065 0
rtoes -6.88922 0 0
lowerback -5.19502 1.62637 1.54803
upperback -0.473071 1.99351 3.4063
thorax 2.35801 0.995912 2.78484
lowerneck -17.287 -6.69834 -13.9695
upperneck 14.8501 -8.49772 14.9372
head 8.76337 -3.42042 6.31905
lclavicle -1.3331e-14 5.96353e-15 0
lhumerus -48.4445 -9.74086 95.5261
lradius 28.508 0 0
lwrist 10.525 0 0
lhand -12.6882 -24.1356 0
lfingers 7.12502 0 0
lthumb 13.3938 5.41385 0
rclavicle -1.3331e-14 5.96353e-15 0
rhumerus -34.6493 10.2546 -80.0787
rradius 50.927 0 0
rwrist -26.2892 0 0
rhand -33.6594 -30.1 0
rfingers 7.12502 0 0
rthumb -6.8508 -59.969 0
